<?xml version="1.0" encoding="UTF-8"?>
<svg id="svg39" xmlns="http://www.w3.org/2000/svg" version="1.1" xmlns:svg="http://www.w3.org/2000/svg" viewBox="0 0 300 300">
  <!-- Generator: Adobe Illustrator 29.8.3, SVG Export Plug-In . SVG Version: 2.1.1 Build 3)  -->
  <defs>
    <style>
      .st0 {
        fill: #fff;
      }
    </style>
  </defs>
  <path id="path37" d="M299.75,145.56S306.68,0,146.71,0C5.23,0,.81,139.63.81,139.63c0,0-20.81,160.37,149.16,160.37s149.78-154.44,149.78-154.44Z"/>
  <path id="path1" class="st0" d="M239.51,136.81c1.91-.01,3.82-.01,5.72-.01,7.26,0,14.53.01,21.79.01h8.16c.01-5.82-4.2-12.79-10.09-18.59-4.96-4.9-11.13-8.97-16.96-10.79-.09,1.45-.18,2.79-.27,4.24-2.15.06-4.29.09-6.42.08-2.33,0-4.65-.06-6.95-.2-7.98-.48-15.72-1.95-22.99-5.82-2.96-1.57-4.89-5.08-7.32-7.7-3.05-3.32-5.55-7.55-9.26-9.7-7.62-4.43-15.92-7.62-23.86-11.49-18.73-9.13-38.16-11.99-58.47-12.02-9.4-.01-19,.58-28.8,1.43-.92.08-1.84.15-2.76.24.65.15,1.28.3,1.91.45,5.56,1.3,10.97,2.56,16.27,3.79,12.22,2.85,23.87,5.57,35.52,8.28-.21,1.03-.4,2.08-.59,3.15-15.33,2.05-30.13-.99-44.95-4.19-4.81-1.04-9.63-2.09-14.47-3-2.72-.51-5.44-.97-8.18-1.35,2.07,1.23,4.17,2.44,6.28,3.61,3.68,2.05,7.42,4.02,11.2,5.89,2.51,1.24,5.05,2.45,7.6,3.61,8.72,3.91,17.71,7.22,26.68,10.84-11.43,9.77-22.88,11.89-37.22,8.61-3.48-.82-7-1.44-10.55-1.83-4.14-.48-8.32-.65-12.5-.54-.37.01-.73.03-1.11.04-8.55.2-16.92,2.78-24.11,7.44,7.08,3.59,13.67,6.65,19.93,10.12.85.47,1.69.95,2.53,1.44,2.86,1.7,6.19,4.57,7,7.54.02.09.04.19.06.28,1.56,7.11,2.76,14.33,3.51,21.59-1.78.2-3.75.62-5.82,1.22-3.37.97-7.05,2.41-10.71,4.14-8.06,3.8-16.1,9-20.89,13.73-1.6,1.58-2.84,3.11-3.6,4.51,1.41.28,2.83.51,4.26.69,7.34,1.01,14.86,1.17,22.37,1.66,3.58.23,7.15.54,10.7,1.06,8.33,1.22,16.52,3.6,24.27,8.83-4.23,3.21-12.22,6.93-18.69,10.28-3.24,1.67-6.1,3.25-7.92,4.62,2.57.67,6.42.96,10.53,1.04,6.68.14,14.08-.29,17.84-.56,5.14-.34,7.5-.46,9.61,1.27l44.86,35.11c2.39.1,4.83.14,7.32.14,18.34,0,33.97-2.55,46.46-7.57,7.27-2.92,13.42-6.63,18.67-11.3-16.33-12.71-33.62-24.24-49.89-37.08-4.45-3.53-7.45-9.59-9.51-15.09-.87-2.33,1.95-8.66,3.87-8.99,10.13-1.77,20.39-2.82,30.69-3.13,11.88-.45,23.75-.09,35.65.08,2.57.03,6.07-.3,7.55,1.15,2.29,2.24,4.39,3.11,6.34,3.12,1.97.01,3.79-.85,5.5-2.08,1.18-.84,2.32-1.86,3.41-2.87,3.33-3.58,6.33-7.45,9.01-11.56-2.93-.61-5.89-1.04-8.87-1.23-1.29-.04-2.57-.06-3.85-.08-1.76-.03-3.52-.05-5.28-.06-8.91-.09-17.82-.08-26.71-.4-2.13-.08-4.17-2.28-6.25-3.49,2.19-.87,4.38-2.46,6.57-2.48,8.72-.09,17.45-.12,26.18-.13ZM192.54,119.19s-.04.02-.06.02c-2.28,1.3-5.18.51-6.48-1.79-.23-.2-.45-.42-.59-.69-.94-1.48-.49-3.42.99-4.34,2.26-1.74,4.58-3.19,7.4-.87,1.59,1.32,3.15,2.68,5.05,4.32-2.37,1.29-4.33,2.34-6.31,3.35Z"/>
</svg>